HIERARCHY
ROOT Hips
{
	OFFSET 0.000000 89.005402 0.000000
	CHANNELS 6 Xposition Yposition Zposition Xrotation Yrotation Zrotation
	JOINT Spine
	{
		OFFSET 0.116900 10.681000 0.373400
		CHANNELS 3 Xrotation Yrotation Zrotation
		JOINT Spine1
		{
			OFFSET 0.000000 13.840401 0.053500
			CHANNELS 3 Xrotation Yrotation Zrotation
			JOINT Spine2
			{
				OFFSET 0.000000 14.712700 -0.366200
				CHANNELS 3 Xrotation Yrotation Zrotation
				JOINT Neck
				{
					OFFSET 0.000000 35.415497 -3.314200
					CHANNELS 3 Xrotation Yrotation Zrotation
					JOINT Head
					{
						OFFSET 0.000000 16.899200 1.218300
						CHANNELS 3 Xrotation Yrotation Zrotation
						JOINT HeadTop_End
						{
							OFFSET 0.000000 22.206207 2.192500
							CHANNELS 3 Xrotation Yrotation Zrotation
							End Site
							{
								OFFSET 0.000000 22.314178 0.000000
							}
						}
					}
				}
				JOINT LeftShoulder
				{
					OFFSET 12.896400 26.716293 -4.548400
					CHANNELS 3 Xrotation Yrotation Zrotation
					JOINT LeftArm
					{
						OFFSET 19.027000 -4.857010 -1.718400
						CHANNELS 3 Xrotation Yrotation Zrotation
						JOINT LeftForeArm
						{
							OFFSET 24.179897 0.000000 0.000000
							CHANNELS 3 Xrotation Yrotation Zrotation
							JOINT LeftHand
							{
								OFFSET 27.156403 0.000000 0.000000
								CHANNELS 3 Xrotation Yrotation Zrotation
								JOINT LeftHandIndex1
								{
									OFFSET 16.441200 0.000000 0.000000
									CHANNELS 3 Xrotation Yrotation Zrotation
									JOINT LeftHandIndex2
									{
										OFFSET 4.821899 0.000000 0.000000
										CHANNELS 3 Xrotation Yrotation Zrotation
										JOINT LeftHandIndex3
										{
											OFFSET 6.386497 0.000000 0.000000
											CHANNELS 3 Xrotation Yrotation Zrotation
											JOINT LeftHandIndex4
											{
												OFFSET 5.188988 0.000000 0.000000
												CHANNELS 3 Xrotation Yrotation Zrotation
												End Site
												{
													OFFSET -0.178703 5.185913 0.000177
												}
											}
										}
									}
								}
								JOINT LeftHandThumb1
								{
									OFFSET 6.534897 -5.032593 5.900300
									CHANNELS 3 Xrotation Yrotation Zrotation
									JOINT LeftHandThumb2
									{
										OFFSET 3.818176 -2.204422 2.204423
										CHANNELS 3 Xrotation Yrotation Zrotation
										JOINT LeftHandThumb3
										{
											OFFSET 3.252098 -1.877594 1.877601
											CHANNELS 3 Xrotation Yrotation Zrotation
											JOINT LeftHandThumb4
											{
												OFFSET 5.251778 -3.032120 3.032117
												CHANNELS 3 Xrotation Yrotation Zrotation
												End Site
												{
													OFFSET 0.000023 6.780014 0.000000
												}
											}
										}
									}
								}
							}
						}
					}
				}
				JOINT RightShoulder
				{
					OFFSET -12.896300 26.716293 -4.548400
					CHANNELS 3 Xrotation Yrotation Zrotation
					JOINT RightArm
					{
						OFFSET -19.027000 -4.857010 -1.718400
						CHANNELS 3 Xrotation Yrotation Zrotation
						JOINT RightForeArm
						{
							OFFSET -24.179897 0.000000 0.000000
							CHANNELS 3 Xrotation Yrotation Zrotation
							JOINT RightHand
							{
								OFFSET -27.156403 0.000000 0.000000
								CHANNELS 3 Xrotation Yrotation Zrotation
								JOINT RightHandThumb1
								{
									OFFSET -6.591202 -4.852203 5.988100
									CHANNELS 3 Xrotation Yrotation Zrotation
									JOINT RightHandThumb2
									{
										OFFSET -3.818176 -2.204422 2.204423
										CHANNELS 3 Xrotation Yrotation Zrotation
										JOINT RightHandThumb3
										{
											OFFSET -3.252098 -1.877594 1.877601
											CHANNELS 3 Xrotation Yrotation Zrotation
											JOINT RightHandThumb4
											{
												OFFSET -5.251778 -3.032120 3.032117
												CHANNELS 3 Xrotation Yrotation Zrotation
												End Site
												{
													OFFSET -0.000023 6.780014 0.000000
												}
											}
										}
									}
								}
								JOINT RightHandIndex1
								{
									OFFSET -16.029404 0.000000 0.000000
									CHANNELS 3 Xrotation Yrotation Zrotation
									JOINT RightHandIndex2
									{
										OFFSET -5.213303 0.000000 0.000000
										CHANNELS 3 Xrotation Yrotation Zrotation
										JOINT RightHandIndex3
										{
											OFFSET -6.386528 0.000000 0.000000
											CHANNELS 3 Xrotation Yrotation Zrotation
											JOINT RightHandIndex4
											{
												OFFSET -5.189026 0.000000 0.000000
												CHANNELS 3 Xrotation Yrotation Zrotation
												End Site
												{
													OFFSET 0.236702 5.183624 0.001972
												}
											}
										}
									}
								}
							}
						}
					}
				}
			}
		}
	}
	JOINT LeftUpLeg
	{
		OFFSET 14.073000 -7.904099 -1.463000
		CHANNELS 3 Xrotation Yrotation Zrotation
		JOINT LeftLeg
		{
			OFFSET -0.109806 -34.073280 4.093200
			CHANNELS 3 Xrotation Yrotation Zrotation
			JOINT LeftFoot
			{
				OFFSET 0.109806 -29.899420 -6.319000
				CHANNELS 3 Xrotation Yrotation Zrotation
				JOINT LeftToeBase
				{
					OFFSET 1.551100 -14.988700 20.535801
					CHANNELS 3 Xrotation Yrotation Zrotation
					JOINT LeftToe_End
					{
						OFFSET 0.221200 0.570800 13.248301
						CHANNELS 3 Xrotation Yrotation Zrotation
						End Site
						{
							OFFSET 0.000000 13.262435 0.000000
						}
					}
				}
			}
		}
	}
	JOINT RightUpLeg
	{
		OFFSET -13.839300 -7.904099 -1.463000
		CHANNELS 3 Xrotation Yrotation Zrotation
		JOINT RightLeg
		{
			OFFSET 0.109694 -34.073219 4.093300
			CHANNELS 3 Xrotation Yrotation Zrotation
			JOINT RightFoot
			{
				OFFSET -0.109694 -29.899384 -6.319200
				CHANNELS 3 Xrotation Yrotation Zrotation
				JOINT RightToeBase
				{
					OFFSET -1.551100 -14.988700 20.535801
					CHANNELS 3 Xrotation Yrotation Zrotation
					JOINT RightToe_End
					{
						OFFSET -0.221200 0.570900 13.248299
						CHANNELS 3 Xrotation Yrotation Zrotation
						End Site
						{
							OFFSET 0.000000 13.262440 0.000000
						}
					}
				}
			}
		}
	}
}
MOTION
Frames: 9
Frame Time: 0.033333
-0.242742 85.911003 1.535792 -3.655393 -0.263518 -3.119910 4.752180 1.356158 0.294918 2.572229 0.188489 0.804270 2.570294 0.195339 0.808666 -1.342908 -0.050186 -0.205819 -4.952820 -0.368062 -0.267112 0.000000 0.000000 0.000000 0.348351 0.827242 -4.748619 -4.646826 -26.876591 -75.700380 0.000001 -6.250268 0.000006 7.147107 -3.125618 -5.540723 1.061956 3.610396 -24.215022 0.429704 2.398636 -20.310319 0.283300 1.958452 -16.460213 0.000001 0.000001 0.000004 3.126375 15.624544 9.123421 3.432502 10.370170 1.774418 -0.889079 8.771047 6.253522 0.000003 -0.000000 0.000002 0.341722 -1.804781 5.898527 -7.105178 8.586863 75.867781 0.000001 8.316282 -0.000010 28.422299 5.934761 1.328461 1.867350 -17.796804 -10.682644 1.780689 -7.960483 -2.686147 -3.112726 -5.700648 -6.971297 -0.000007 0.000001 0.000002 2.938984 -7.151091 28.368376 0.213528 -1.713257 14.207788 0.116590 -1.270511 10.485361 0.000002 0.000000 -0.000003 -5.154997 14.130571 9.075721 23.532109 9.506052 2.422680 -14.272246 4.780457 -8.733392 -4.613306 0.000014 -0.000001 -0.000000 -0.000002 -0.000000 -8.490340 -4.297179 -1.907023 16.000977 -9.723790 -3.519718 -0.945091 -13.567670 8.352773 -4.229441 0.000012 0.000001 0.000000 -0.000000 0.000000 
-0.236660 85.908051 1.499783 -3.636456 -0.348380 -3.146631 4.705579 1.399460 0.314943 2.590660 0.194710 0.803347 2.588689 0.201387 0.807924 -1.393890 -0.062353 -0.180120 -4.978274 -0.387714 -0.294653 0.000000 0.000000 0.000000 0.346958 0.834378 -4.735733 -4.475335 -26.567723 -75.686289 0.000002 -6.012681 0.000000 7.470081 -3.067772 -5.676440 1.063740 3.630777 -24.101337 0.429711 2.398635 -20.310290 0.283492 1.959125 -16.466080 0.000001 -0.000001 0.000000 3.119974 15.700576 9.166072 3.432498 10.370170 1.774418 -0.930388 8.699930 6.264137 0.000003 -0.000000 -0.000002 0.343997 -1.820548 5.917479 -7.013387 8.469074 75.875369 0.000000 8.268154 -0.000024 28.432681 5.861923 1.295713 1.893663 -17.775308 -10.629720 1.780684 -7.960491 -2.686168 -3.130907 -5.664975 -6.976544 -0.000002 0.000001 -0.000001 2.912368 -7.085238 28.480617 0.213537 -1.713264 14.207674 0.115645 -1.265437 10.443063 -0.000003 -0.000001 0.000002 -5.223442 14.186130 9.144474 23.592853 9.494143 2.350959 -14.293796 4.777151 -8.690932 -4.631391 0.000002 -0.000000 0.000000 -0.000000 -0.000000 -8.556329 -4.294235 -1.903763 15.978748 -9.726200 -3.477167 -0.894052 -13.483707 8.309403 -4.230210 0.000003 0.000003 -0.000000 0.000002 0.000000 
-0.231632 85.901855 1.464024 -3.645120 -0.435008 -3.170217 4.720632 1.452152 0.334664 2.602912 0.201961 0.799170 2.600896 0.208514 0.803929 -1.436701 -0.078662 -0.153732 -4.988691 -0.420633 -0.335382 -0.000000 -0.000000 0.000000 0.346470 0.793643 -4.712251 -4.386643 -26.259767 -75.688837 -0.000010 -5.815432 0.000031 7.576149 -3.046714 -5.796928 1.064145 3.647867 -23.993264 0.429702 2.398636 -20.310303 0.283780 1.960123 -16.474662 0.000000 -0.000000 -0.000001 3.110793 15.760948 9.206448 3.432500 10.370173 1.774420 -0.975332 8.622875 6.275669 -0.000001 -0.000000 -0.000001 0.343399 -1.773053 5.932361 -6.915140 8.415573 75.867972 0.000003 8.300366 -0.000028 28.392644 5.879572 1.280044 1.908350 -17.759564 -10.598711 1.780693 -7.960485 -2.686162 -3.137114 -5.652919 -6.978444 -0.000003 -0.000002 -0.000001 2.888748 -7.010257 28.681552 0.213522 -1.713247 14.207564 0.115467 -1.264470 10.435110 0.000001 -0.000000 0.000001 -5.260452 14.222351 9.191497 23.659174 9.484264 2.309408 -14.319422 4.803172 -8.665114 -4.641366 -0.000002 0.000002 -0.000000 -0.000000 -0.000000 -8.604232 -4.284265 -1.895896 15.979642 -9.725178 -3.451857 -0.855229 -13.402502 8.278805 -4.225150 -0.000003 0.000001 0.000000 0.000002 0.000000 
-0.224493 85.890503 1.426610 -3.668457 -0.489582 -3.183234 4.809037 1.484611 0.353890 2.596613 0.206098 0.795641 2.594578 0.212637 0.800458 -1.488717 -0.096419 -0.134749 -4.958696 -0.470977 -0.374875 0.000000 0.000000 0.000000 0.344911 0.724440 -4.644297 -4.324332 -25.935475 -75.739162 0.000000 -5.727013 -0.000023 7.516617 -3.052653 -5.791900 1.043801 3.615722 -23.904458 0.429708 2.398640 -20.310297 0.284595 1.962837 -16.498079 -0.000001 -0.000002 -0.000002 3.089993 15.751465 9.234039 3.432498 10.370172 1.774418 -1.001368 8.580340 6.282329 0.000002 -0.000003 -0.000000 0.338075 -1.641881 5.919407 -6.790942 8.324043 75.864455 -0.000004 8.398950 0.000056 28.288005 5.939684 1.212799 1.913124 -17.755017 -10.589272 1.780690 -7.960488 -2.686150 -3.133289 -5.660520 -6.977465 0.000001 0.000002 0.000002 2.880535 -6.960604 28.904777 0.213530 -1.713246 14.207526 0.115802 -1.266285 10.450177 -0.000002 0.000000 -0.000002 -5.291278 14.220126 9.201704 23.738480 9.477729 2.308016 -14.344791 4.850745 -8.654279 -4.637856 0.000000 -0.000000 0.000001 -0.000001 -0.000000 -8.648340 -4.270011 -1.892579 16.019889 -9.719280 -3.447314 -0.836071 -13.357678 8.271357 -4.219328 0.000009 0.000002 -0.000000 -0.000002 -0.000000 
-0.217393 85.872475 1.379829 -3.688096 -0.526985 -3.193607 4.993296 1.497206 0.374091 2.553341 0.206976 0.800973 2.551284 0.213719 0.805644 -1.565177 -0.108209 -0.131535 -4.854701 -0.508196 -0.414421 -0.000000 0.000000 0.000000 0.341279 0.615542 -4.507384 -4.183055 -25.472847 -75.852591 0.000001 -5.761504 0.000003 7.313965 -3.045900 -5.493145 1.005645 3.541419 -23.812370 0.429706 2.398645 -20.310281 0.285799 1.966896 -16.533267 0.000002 0.000003 0.000001 3.052657 15.652422 9.248378 3.432498 10.370173 1.774420 -0.999481 8.587725 6.281815 -0.000001 -0.000001 0.000000 0.325747 -1.404921 5.837498 -6.589552 8.065142 75.886837 0.000002 8.540556 -0.000017 28.029090 5.962222 1.031827 1.909287 -17.750287 -10.593640 1.780706 -7.960469 -2.686147 -3.125125 -5.676688 -6.975384 -0.000003 0.000002 0.000003 2.880839 -6.937097 29.076904 0.213522 -1.713212 14.207510 0.116146 -1.268168 10.465888 -0.000001 0.000000 -0.000001 -5.353364 14.195180 9.202134 23.852305 9.468580 2.322843 -14.375680 4.914266 -8.647204 -4.621110 0.000003 -0.000005 -0.000000 0.000001 0.000000 -8.717556 -4.251466 -1.893855 16.098215 -9.691530 -3.442063 -0.830646 -13.337508 8.268105 -4.223327 0.000013 0.000001 -0.000000 0.000003 0.000000 
-0.217031 85.848602 1.316784 -3.685893 -0.603562 -3.212907 5.273572 1.526982 0.393070 2.474376 0.209590 0.822163 2.472239 0.216848 0.826600 -1.660937 -0.105453 -0.151403 -4.701625 -0.501626 -0.442440 0.000000 0.000000 -0.000000 0.338436 0.356243 -4.313100 -3.895741 -24.790788 -75.963786 -0.000007 -5.943430 -0.000035 6.719917 -3.034665 -4.845227 0.963546 3.456990 -23.690600 0.429716 2.398644 -20.310290 0.287266 1.971831 -16.576043 -0.000000 0.000002 0.000002 3.001897 15.482167 9.253431 3.432493 10.370171 1.774418 -0.974364 8.635420 6.275291 -0.000001 -0.000000 -0.000000 0.303884 -0.982980 5.672735 -6.225487 7.666510 75.889726 0.000004 8.808504 -0.000024 27.404997 5.996314 0.815280 1.893851 -17.743604 -10.615442 1.780702 -7.960486 -2.686159 -3.113663 -5.699329 -6.972433 -0.000003 0.000000 0.000001 2.893552 -6.965013 29.065672 0.213527 -1.713224 14.207435 0.116627 -1.270781 10.487709 -0.000002 -0.000002 0.000002 -5.467325 14.180217 9.229377 24.007504 9.449981 2.317579 -14.416200 5.007913 -8.631574 -4.598511 -0.000004 0.000001 -0.000000 -0.000000 -0.000000 -8.847779 -4.249900 -1.912978 16.207364 -9.651009 -3.374790 -0.832490 -13.265235 8.214618 -4.240837 0.000014 -0.000001 -0.000000 0.000001 0.000000 
-0.232924 85.813301 1.232670 -3.660047 -0.740301 -3.224354 5.640700 1.588991 0.377609 2.398579 0.216275 0.863236 2.396250 0.224498 0.867479 -1.770762 -0.089478 -0.190689 -4.629883 -0.469472 -0.432773 0.000000 0.000000 -0.000000 0.340910 -0.169395 -4.091392 -3.407163 -23.927008 -75.952591 -0.000001 -6.337959 0.000027 5.489139 -3.051291 -4.068392 0.939769 3.413270 -23.523685 0.429708 2.398635 -20.310303 0.288756 1.976839 -16.619442 -0.000000 0.000002 -0.000000 2.944397 15.286021 9.259610 3.432497 10.370170 1.774418 -0.942862 8.692150 6.267035 -0.000000 0.000001 0.000001 0.272853 -0.266061 5.475263 -5.630563 7.213465 75.765157 0.000002 9.286771 -0.000027 26.290426 6.150226 0.628046 1.865459 -17.734504 -10.656319 1.780688 -7.960481 -2.686152 -3.101335 -5.723648 -6.969317 -0.000003 0.000000 -0.000002 2.917874 -7.049480 28.815373 0.213532 -1.713228 14.207388 0.117372 -1.274739 10.520801 0.000005 -0.000001 0.000002 -5.626058 14.140582 9.240150 24.200211 9.428227 2.332672 -14.455665 5.194431 -8.630460 -4.579606 -0.000005 -0.000001 0.000000 0.000000 -0.000000 -9.083035 -4.296286 -1.987283 16.414177 -9.602438 -3.205912 -0.878364 -13.084611 8.081033 -4.266111 0.000010 -0.000000 -0.000000 0.000002 0.000000 
-0.275528 85.746826 1.116553 -3.625052 -0.870681 -3.180962 6.148673 1.651979 0.287622 2.354783 0.222776 0.915993 2.352194 0.232608 0.920039 -1.929994 -0.077358 -0.232349 -4.779268 -0.472396 -0.404632 0.000000 0.000000 0.000000 0.349473 -0.884305 -3.870530 -2.684493 -23.145197 -75.697976 0.000000 -7.142659 -0.000005 3.770247 -3.100993 -3.615318 0.954150 3.456253 -23.311294 0.429710 2.398642 -20.310307 0.289995 1.980973 -16.655075 0.000001 0.000000 -0.000002 2.887734 15.116735 9.278746 3.432497 10.370175 1.774418 -0.926765 8.718683 6.262835 -0.000000 -0.000003 -0.000001 0.238553 0.692023 5.311483 -4.876136 6.808353 75.482838 0.000001 9.955578 -0.000005 24.805154 6.506676 0.408603 1.825678 -17.723661 -10.714081 1.780688 -7.960480 -2.686146 -3.091643 -5.742730 -6.966906 0.000001 0.000001 0.000001 2.946503 -7.168605 28.393626 0.213523 -1.713221 14.207352 0.118268 -1.279552 10.560977 -0.000000 0.000001 -0.000003 -5.841799 13.970657 9.125000 24.468065 9.414429 2.480381 -14.482451 5.539262 -8.697209 -4.564052 -0.000000 0.000002 -0.000000 -0.000002 -0.000000 -9.480316 -4.378292 -2.135975 16.879826 -9.538854 -2.999726 -1.043764 -12.863211 7.922939 -4.291460 -0.000002 0.000002 -0.000000 -0.000001 0.000000 
-0.350206 85.634300 0.966140 -3.558069 -0.906596 -3.071843 6.813424 1.686051 0.170351 2.324986 0.224741 0.950568 2.322229 0.236481 0.954317 -2.197286 -0.087313 -0.251634 -5.077005 -0.536266 -0.431565 0.000000 0.000000 0.000000 0.359166 -1.490963 -3.695866 -1.749150 -22.751837 -75.143877 -0.000003 -8.537133 0.000001 2.217515 -3.095373 -3.799926 1.011197 3.598142 -23.060578 0.429706 2.398642 -20.310291 0.290626 1.983072 -16.673393 0.000001 -0.000001 -0.000002 2.837937 15.011706 9.317229 3.432497 10.370171 1.774420 -0.942513 8.686243 6.266991 -0.000003 0.000004 0.000003 0.212132 1.542471 5.231695 -4.189254 6.543429 75.151957 0.000003 10.648098 -0.000025 23.437219 7.052996 0.152288 1.778870 -17.713339 -10.783123 1.780665 -7.960482 -2.686144 -3.089041 -5.747707 -6.966455 0.000002 -0.000000 0.000001 2.968980 -7.280529 27.961316 0.213520 -1.713206 14.207313 0.118967 -1.283327 10.592509 -0.000002 -0.000002 0.000002 -6.199498 13.652075 8.891367 24.880344 9.391817 2.769186 -14.511130 5.988485 -8.837042 -4.544016 0.000002 -0.000002 -0.000000 -0.000000 0.000000 -10.079215 -4.453875 -2.317271 17.674059 -9.495380 -2.845034 -1.355018 -12.733120 7.807111 -4.306472 -0.000012 -0.000002 -0.000000 0.000000 0.000000 
